<svg width="150" height="150" viewBox="0 0 150 150" fill="none" xmlns="http://www.w3.org/2000/svg">
<circle cx="2.08346" cy="2.08346" r="2.08346" fill="#D0D0D0"/>
<circle cx="2.08346" cy="83.1018" r="2.08346" fill="#D0D0D0"/>
<circle cx="83.1018" cy="2.08346" r="2.08346" fill="#D0D0D0"/>
<circle cx="83.1018" cy="83.1018" r="2.08346" fill="#D0D0D0"/>
<circle cx="2.08346" cy="18.2871" r="2.08346" fill="#D0D0D0"/>
<circle cx="2.08346" cy="99.3055" r="2.08346" fill="#D0D0D0"/>
<circle cx="83.1018" cy="18.2871" r="2.08346" fill="#D0D0D0"/>
<circle cx="83.1018" cy="99.3055" r="2.08346" fill="#D0D0D0"/>
<circle cx="2.08346" cy="34.4908" r="2.08346" fill="#D0D0D0"/>
<circle cx="2.08346" cy="115.509" r="2.08346" fill="#D0D0D0"/>
<circle cx="83.1018" cy="34.4908" r="2.08346" fill="#D0D0D0"/>
<circle cx="83.1018" cy="115.509" r="2.08346" fill="#D0D0D0"/>
<circle cx="2.08346" cy="50.6944" r="2.08346" fill="#D0D0D0"/>
<circle cx="2.08346" cy="131.713" r="2.08346" fill="#D0D0D0"/>
<circle cx="83.1018" cy="50.6944" r="2.08346" fill="#D0D0D0"/>
<circle cx="83.1018" cy="131.713" r="2.08346" fill="#D0D0D0"/>
<circle cx="2.08346" cy="66.8982" r="2.08346" fill="#D0D0D0"/>
<circle cx="2.08346" cy="147.917" r="2.08346" fill="#D0D0D0"/>
<circle cx="83.1018" cy="66.8982" r="2.08346" fill="#D0D0D0"/>
<circle cx="83.1018" cy="147.917" r="2.08346" fill="#D0D0D0"/>
<circle cx="18.2871" cy="2.08346" r="2.08346" fill="#D0D0D0"/>
<circle cx="18.2871" cy="83.1018" r="2.08346" fill="#D0D0D0"/>
<circle cx="99.3055" cy="2.08346" r="2.08346" fill="#D0D0D0"/>
<circle cx="99.3055" cy="83.1018" r="2.08346" fill="#D0D0D0"/>
<circle cx="18.2871" cy="18.2871" r="2.08346" fill="#D0D0D0"/>
<circle cx="18.2871" cy="99.3055" r="2.08346" fill="#D0D0D0"/>
<circle cx="99.3055" cy="18.2871" r="2.08346" fill="#D0D0D0"/>
<circle cx="99.3055" cy="99.3055" r="2.08346" fill="#D0D0D0"/>
<circle cx="18.2871" cy="34.4908" r="2.08346" fill="#D0D0D0"/>
<circle cx="18.2871" cy="115.509" r="2.08346" fill="#D0D0D0"/>
<circle cx="99.3055" cy="34.4908" r="2.08346" fill="#D0D0D0"/>
<circle cx="99.3055" cy="115.509" r="2.08346" fill="#D0D0D0"/>
<circle cx="18.2871" cy="50.6944" r="2.08346" fill="#D0D0D0"/>
<circle cx="18.2871" cy="131.713" r="2.08346" fill="#D0D0D0"/>
<circle cx="99.3055" cy="50.6944" r="2.08346" fill="#D0D0D0"/>
<circle cx="99.3055" cy="131.713" r="2.08346" fill="#D0D0D0"/>
<circle cx="18.2871" cy="66.8982" r="2.08346" fill="#D0D0D0"/>
<circle cx="18.2871" cy="147.917" r="2.08346" fill="#D0D0D0"/>
<circle cx="99.3055" cy="66.8982" r="2.08346" fill="#D0D0D0"/>
<circle cx="99.3055" cy="147.917" r="2.08346" fill="#D0D0D0"/>
<circle cx="34.4908" cy="2.08346" r="2.08346" fill="#D0D0D0"/>
<circle cx="34.4908" cy="83.1018" r="2.08346" fill="#D0D0D0"/>
<circle cx="115.509" cy="2.08346" r="2.08346" fill="#D0D0D0"/>
<circle cx="115.509" cy="83.1018" r="2.08346" fill="#D0D0D0"/>
<circle cx="34.4908" cy="18.2871" r="2.08346" fill="#D0D0D0"/>
<circle cx="34.4908" cy="99.3055" r="2.08346" fill="#D0D0D0"/>
<circle cx="115.509" cy="18.2871" r="2.08346" fill="#D0D0D0"/>
<circle cx="115.509" cy="99.3055" r="2.08346" fill="#D0D0D0"/>
<circle cx="34.4908" cy="34.4908" r="2.08346" fill="#D0D0D0"/>
<circle cx="34.4908" cy="115.509" r="2.08346" fill="#D0D0D0"/>
<circle cx="115.509" cy="34.4908" r="2.08346" fill="#D0D0D0"/>
<circle cx="115.509" cy="115.509" r="2.08346" fill="#D0D0D0"/>
<circle cx="34.4908" cy="50.6944" r="2.08346" fill="#D0D0D0"/>
<circle cx="34.4908" cy="131.713" r="2.08346" fill="#D0D0D0"/>
<circle cx="115.509" cy="50.6944" r="2.08346" fill="#D0D0D0"/>
<circle cx="115.509" cy="131.713" r="2.08346" fill="#D0D0D0"/>
<circle cx="34.4908" cy="66.8982" r="2.08346" fill="#D0D0D0"/>
<circle cx="34.4908" cy="147.917" r="2.08346" fill="#D0D0D0"/>
<circle cx="115.509" cy="66.8982" r="2.08346" fill="#D0D0D0"/>
<circle cx="115.509" cy="147.917" r="2.08346" fill="#D0D0D0"/>
<circle cx="50.6944" cy="2.08346" r="2.08346" fill="#D0D0D0"/>
<circle cx="50.6944" cy="83.1018" r="2.08346" fill="#D0D0D0"/>
<circle cx="131.713" cy="2.08346" r="2.08346" fill="#D0D0D0"/>
<circle cx="131.713" cy="83.1018" r="2.08346" fill="#D0D0D0"/>
<circle cx="50.6944" cy="18.2871" r="2.08346" fill="#D0D0D0"/>
<circle cx="50.6944" cy="99.3055" r="2.08346" fill="#D0D0D0"/>
<circle cx="131.713" cy="18.2871" r="2.08346" fill="#D0D0D0"/>
<circle cx="131.713" cy="99.3055" r="2.08346" fill="#D0D0D0"/>
<circle cx="50.6944" cy="34.4908" r="2.08346" fill="#D0D0D0"/>
<circle cx="50.6944" cy="115.509" r="2.08346" fill="#D0D0D0"/>
<circle cx="131.713" cy="34.4908" r="2.08346" fill="#D0D0D0"/>
<circle cx="131.713" cy="115.509" r="2.08346" fill="#D0D0D0"/>
<circle cx="50.6944" cy="50.6944" r="2.08346" fill="#D0D0D0"/>
<circle cx="50.6944" cy="131.713" r="2.08346" fill="#D0D0D0"/>
<circle cx="131.713" cy="50.6944" r="2.08346" fill="#D0D0D0"/>
<circle cx="131.713" cy="131.713" r="2.08346" fill="#D0D0D0"/>
<circle cx="50.6944" cy="66.8982" r="2.08346" fill="#D0D0D0"/>
<circle cx="50.6944" cy="147.917" r="2.08346" fill="#D0D0D0"/>
<circle cx="131.713" cy="66.8982" r="2.08346" fill="#D0D0D0"/>
<circle cx="131.713" cy="147.917" r="2.08346" fill="#D0D0D0"/>
<circle cx="66.8982" cy="2.08346" r="2.08346" fill="#D0D0D0"/>
<circle cx="66.8982" cy="83.1018" r="2.08346" fill="#D0D0D0"/>
<circle cx="147.916" cy="2.08346" r="2.08346" fill="#D0D0D0"/>
<circle cx="147.916" cy="83.1018" r="2.08346" fill="#D0D0D0"/>
<circle cx="66.8982" cy="18.2871" r="2.08346" fill="#D0D0D0"/>
<circle cx="66.8982" cy="99.3055" r="2.08346" fill="#D0D0D0"/>
<circle cx="147.916" cy="18.2871" r="2.08346" fill="#D0D0D0"/>
<circle cx="147.916" cy="99.3055" r="2.08346" fill="#D0D0D0"/>
<circle cx="66.8982" cy="34.4908" r="2.08346" fill="#D0D0D0"/>
<circle cx="66.8982" cy="115.509" r="2.08346" fill="#D0D0D0"/>
<circle cx="147.916" cy="34.4908" r="2.08346" fill="#D0D0D0"/>
<circle cx="147.916" cy="115.509" r="2.08346" fill="#D0D0D0"/>
<circle cx="66.8982" cy="50.6944" r="2.08346" fill="#D0D0D0"/>
<circle cx="66.8982" cy="131.713" r="2.08346" fill="#D0D0D0"/>
<circle cx="147.916" cy="50.6944" r="2.08346" fill="#D0D0D0"/>
<circle cx="147.916" cy="131.713" r="2.08346" fill="#D0D0D0"/>
<circle cx="66.8982" cy="66.8982" r="2.08346" fill="#D0D0D0"/>
<circle cx="66.8982" cy="147.917" r="2.08346" fill="#D0D0D0"/>
<circle cx="147.916" cy="66.8982" r="2.08346" fill="#D0D0D0"/>
<circle cx="147.916" cy="147.917" r="2.08346" fill="#D0D0D0"/>
</svg>
